<?xml version="1.0" standalone="no"?>
<!DOCTYPE svg PUBLIC "-//W3C//DTD SVG 20010904//EN"
 "http://www.w3.org/TR/2001/REC-SVG-20010904/DTD/svg10.dtd">
<svg version="1.0" xmlns="http://www.w3.org/2000/svg"
 width="1080.000000pt" height="1080.000000pt" viewBox="0 0 1080.000000 1080.000000"
 preserveAspectRatio="xMidYMid meet">

<g transform="translate(0.000000,1080.000000) scale(0.100000,-0.100000)"
fill="#000000" stroke="none">
<path d="M9730 7771 c-47 -10 -116 -30 -154 -45 -37 -14 -155 -44 -262 -66
-107 -22 -289 -68 -406 -101 -117 -33 -373 -102 -568 -154 -373 -98 -453 -120
-770 -215 -262 -78 -379 -110 -615 -165 -339 -79 -552 -134 -745 -191 -102
-31 -281 -82 -398 -115 -228 -63 -351 -106 -502 -174 -152 -70 -251 -78 -380
-33 -35 13 -95 22 -162 25 -95 5 -115 3 -170 -17 -35 -12 -91 -42 -126 -67
-75 -53 -166 -97 -247 -118 -135 -35 -295 -5 -295 56 0 10 15 47 34 81 75 136
105 255 137 536 22 197 4 272 -66 272 -42 0 -52 -13 -57 -80 -4 -44 -25 -96
-108 -264 l-103 -208 -9 -172 c-5 -94 -11 -181 -13 -193 -6 -25 -128 -99 -182
-109 -42 -8 -138 24 -226 75 -146 86 -256 113 -522 130 -110 7 -157 6 -175 -2
-31 -15 -47 -58 -34 -94 8 -24 25 -33 146 -73 136 -46 329 -136 332 -155 0 -5
-26 -13 -59 -17 -334 -39 -426 -48 -525 -53 -192 -10 -347 -25 -525 -51 -93
-14 -255 -29 -360 -34 -256 -13 -393 -27 -563 -56 -78 -13 -213 -31 -300 -40
-182 -18 -255 -33 -348 -70 -114 -45 -184 -91 -201 -132 -41 -99 -21 -235 50
-325 22 -29 74 -88 116 -132 42 -44 94 -100 115 -124 57 -63 110 -84 194 -76
175 17 340 38 477 61 137 24 207 38 515 109 128 30 318 62 414 71 64 6 73 4
89 -14 23 -26 44 -151 53 -322 8 -149 10 -145 -103 -165 -78 -14 -150 -8 -193
15 -28 15 -87 12 -194 -10 -135 -28 -261 -65 -290 -87 -42 -32 -69 -81 -74
-136 -4 -48 1 -62 52 -162 31 -61 81 -144 111 -187 45 -63 64 -81 110 -104
l56 -27 187 6 c203 6 291 18 597 77 110 21 297 52 416 69 119 17 317 47 440
66 244 38 467 62 493 52 17 -7 21 -43 7 -66 -5 -8 -32 -14 -65 -16 -182 -11
-290 -201 -207 -363 36 -71 120 -148 181 -166 50 -15 57 -15 131 6 120 32 178
65 212 120 40 64 44 112 18 188 -28 81 -17 126 47 192 26 26 60 63 75 82 46
57 93 72 262 85 323 25 386 32 496 51 201 36 318 51 356 48 33 -3 38 -7 41
-31 2 -15 -8 -52 -22 -83 -33 -72 -35 -159 -5 -221 29 -60 117 -137 181 -159
151 -50 299 10 368 149 37 76 49 138 37 195 -6 33 -22 56 -69 102 -33 33 -58
65 -56 71 8 23 82 41 163 41 67 0 100 -7 202 -41 66 -23 172 -50 235 -60 62
-11 142 -27 178 -36 43 -11 141 -19 290 -25 124 -5 288 -16 365 -25 80 -10
176 -15 225 -13 97 6 106 4 121 -24 8 -15 7 -24 -7 -39 -9 -10 -23 -19 -30
-19 -42 0 -114 -104 -114 -165 0 -75 73 -164 151 -185 83 -23 162 13 218 96
56 85 54 118 -9 183 -54 56 -80 100 -80 136 0 46 16 55 94 55 185 1 367 94
431 220 50 99 69 296 44 465 -10 65 -9 78 5 100 19 29 71 46 436 140 505 131
582 157 764 265 108 64 129 93 123 170 -10 140 -93 254 -233 320 -209 100
-363 93 -753 -36 -173 -57 -199 -62 -219 -42 -18 18 -15 38 17 135 17 48 35
129 42 178 17 129 24 153 65 220 21 33 50 84 66 113 21 37 36 52 50 52 12 0
66 15 122 34 140 48 243 74 606 156 409 92 499 114 651 161 152 46 440 160
491 194 72 48 104 165 65 241 -49 95 -263 228 -442 275 -117 30 -313 35 -425
10z m348 -147 c146 -29 241 -71 315 -137 37 -34 47 -50 47 -75 0 -39 -26 -58
-157 -116 -227 -101 -464 -174 -811 -252 -114 -25 -299 -70 -412 -99 -652
-168 -799 -208 -914 -245 -70 -23 -184 -52 -254 -66 -70 -13 -172 -37 -227
-53 -55 -17 -218 -59 -362 -96 -253 -63 -492 -138 -716 -224 -146 -57 -511
-161 -561 -161 -31 0 -135 40 -408 157 -202 87 -364 160 -360 164 9 8 752 222
1127 324 371 102 735 194 977 249 108 25 236 59 285 76 208 74 514 159 882
245 106 25 262 67 347 95 84 27 192 56 241 65 142 25 313 69 633 161 72 20
189 16 328 -12z m-1709 -1040 c-13 -14 -60 -50 -105 -81 -96 -64 -123 -67
-140 -13 -16 49 -4 65 68 89 83 26 94 28 152 30 l49 1 -24 -26z m-389 -88 c9
-12 5 -16 -27 -21 -113 -19 -200 -39 -261 -60 -66 -23 -66 -24 -27 -24 22 0
81 6 130 14 50 8 104 12 120 9 38 -8 85 -32 85 -43 0 -11 -75 -28 -163 -36
-42 -4 -73 -13 -84 -23 -16 -16 -13 -17 47 -22 35 -3 65 -9 66 -15 5 -17 -214
-173 -411 -293 -118 -71 -120 -72 -123 -48 -5 43 26 147 74 246 26 52 56 114
67 138 24 51 85 107 135 123 45 15 298 66 333 68 15 0 32 -5 39 -13z m-3071
-113 c24 -15 24 -17 6 -24 -29 -11 -78 -10 -114 2 -38 13 -39 24 -3 38 33 12
77 6 111 -16z m3468 10 c3 -9 1 -39 -6 -67 -6 -28 -25 -116 -41 -196 -17 -80
-36 -156 -43 -169 -16 -32 -71 -55 -97 -41 -25 14 -28 26 -35 200 -4 110 -2
150 7 163 24 31 163 126 186 127 12 0 25 -7 29 -17z m-3299 -50 c14 -28 3 -43
-32 -43 -36 0 -56 15 -56 42 0 25 75 26 88 1z m2256 7 c14 -5 26 -16 26 -24 0
-7 -18 -49 -39 -92 -76 -153 -119 -293 -147 -477 -8 -56 -19 -106 -24 -111
-27 -27 -307 58 -477 145 -65 33 -167 81 -228 105 -112 46 -195 89 -195 102 0
15 887 318 1057 362 1 0 13 -4 27 -10z m-2130 -33 c22 -16 17 -50 -7 -55 -23
-5 -57 25 -57 50 0 22 37 25 64 5z m-593 -17 c10 -6 19 -16 19 -22 0 -14 -73
-3 -109 17 -26 14 -25 14 22 15 27 0 57 -5 68 -10z m243 -40 c33 -12 33 -27 1
-42 -18 -8 -32 -8 -55 2 -41 17 -46 28 -18 39 30 13 42 13 72 1z m-304 -54
c74 -19 176 -49 225 -66 137 -47 240 -69 352 -77 116 -7 142 3 166 60 8 17 27
47 42 65 23 27 34 33 54 29 15 -3 314 -135 666 -293 352 -157 682 -304 734
-324 87 -35 131 -63 120 -74 -7 -7 -595 -141 -772 -175 -355 -70 -770 -126
-862 -117 -68 6 -410 116 -615 196 -74 29 -214 93 -310 142 -96 50 -202 101
-235 115 -82 34 -91 44 -76 81 32 78 132 60 296 -53 35 -23 89 -53 122 -65 59
-23 274 -59 350 -60 43 0 123 26 123 40 0 4 -29 35 -64 67 -47 45 -84 69 -142
93 -44 17 -106 49 -139 70 -94 61 -165 89 -261 104 -49 7 -97 17 -106 21 -20
8 -31 44 -49 155 -6 41 -12 77 -13 80 0 3 19 11 44 17 72 20 198 9 350 -31z
m458 8 c41 -29 17 -63 -32 -44 -29 11 -40 26 -32 45 7 19 36 19 64 -1z m152
-25 c0 -15 -5 -20 -22 -17 -34 5 -37 38 -4 38 20 0 26 -5 26 -21z m2868 -26
c15 -30 35 -199 29 -244 -12 -91 -52 -111 -392 -200 -104 -27 -225 -61 -268
-75 -82 -27 -120 -26 -131 3 -5 12 5 27 32 52 22 20 56 57 76 83 27 34 65 62
139 104 56 31 166 100 245 153 188 126 213 141 239 141 12 0 26 -8 31 -17z
m-4545 -112 c26 -10 27 -14 27 -79 0 -79 20 -162 55 -232 27 -54 32 -92 13
-107 -7 -6 -47 -14 -88 -17 -41 -4 -131 -18 -200 -31 -220 -42 -781 -130
-1144 -180 -260 -36 -536 -86 -826 -149 -273 -60 -436 -85 -585 -89 -121 -2
-156 12 -225 94 -125 147 -183 251 -178 315 3 35 8 42 55 70 28 17 83 41 122
53 93 29 386 77 591 97 375 36 902 97 1160 134 151 22 406 53 565 70 160 17
328 39 375 50 91 21 230 21 283 1z m5803 -84 c68 -34 111 -72 146 -126 l28
-44 -53 -35 c-28 -19 -72 -52 -97 -72 -78 -64 -150 -97 -330 -149 -96 -28
-260 -76 -365 -107 -169 -49 -576 -155 -1120 -291 -254 -63 -426 -112 -685
-193 -124 -39 -293 -89 -376 -111 -83 -21 -179 -50 -213 -64 -36 -15 -116 -33
-198 -45 -76 -11 -171 -29 -210 -40 -93 -26 -129 -26 -143 -1 -7 14 -5 62 5
161 8 78 15 164 15 190 0 65 14 98 47 111 28 10 136 29 323 54 63 9 216 40
340 70 124 29 315 75 425 100 475 110 1048 261 1195 316 47 17 148 51 224 76
76 25 194 67 261 94 140 55 272 92 395 109 47 6 108 16 135 20 91 16 194 6
251 -23z m-5439 -429 c25 -17 166 -92 312 -167 245 -126 368 -197 358 -207 -5
-5 -330 -78 -437 -98 -404 -74 -480 -82 -480 -45 0 5 9 28 20 50 12 22 35 79
52 127 16 48 41 105 54 127 28 49 54 145 54 202 0 24 5 43 11 43 6 0 31 -14
56 -32z m-345 -83 c3 -3 -7 -30 -23 -59 -47 -87 -62 -165 -56 -288 9 -153 24
-143 -260 -184 -208 -30 -502 -64 -556 -64 -20 0 -19 1 4 26 13 14 67 55 119
89 52 35 167 120 255 189 260 205 342 266 377 281 32 14 129 20 140 10z m-408
-54 c11 -17 -102 -109 -263 -215 -90 -59 -216 -147 -280 -196 -121 -92 -159
-111 -179 -88 -12 15 -41 186 -49 294 -8 104 -19 99 387 163 107 17 209 35
225 40 39 12 152 14 159 2z m5077 -280 c37 -37 42 -93 13 -138 -11 -17 -11
-28 -3 -47 21 -44 5 -73 -51 -91 -27 -9 -50 -21 -50 -25 0 -13 35 -30 59 -30
71 0 28 -150 -56 -197 -108 -60 -290 -57 -603 13 -129 29 -136 32 -121 47 7 7
7 14 0 24 -15 18 -39 17 -39 -2 0 -8 5 -15 10 -15 6 0 10 -4 10 -10 0 -37
-326 34 -491 108 -80 36 -87 31 187 116 244 75 417 121 640 170 185 41 203 43
183 20 -7 -8 -26 -22 -43 -29 -27 -12 -27 -14 -6 -10 14 3 90 14 170 26 80 12
146 23 148 24 10 8 -14 35 -32 35 -53 0 -87 23 -48 33 53 14 94 7 123 -22z
m-2627 -7 c13 -5 16 -22 16 -85 0 -78 0 -79 -26 -79 -19 0 -28 8 -40 37 -25
60 -28 97 -9 116 17 18 33 21 59 11z m-270 -35 c53 -14 81 -46 127 -145 37
-79 89 -238 89 -270 0 -8 -9 -14 -21 -14 -27 0 -559 349 -559 367 0 44 36 61
155 77 42 6 163 -3 209 -15z m-566 -51 c7 -7 12 -20 12 -30 0 -40 -395 -433
-468 -465 -15 -7 -43 -12 -62 -12 -65 -1 -65 -3 -45 195 17 183 25 211 68 238
12 8 99 26 192 40 94 15 186 31 205 35 51 13 84 13 98 -1z m-658 -128 c26 -26
26 -84 0 -175 -23 -80 -41 -105 -64 -86 -14 12 -21 48 -32 185 -5 61 -4 80 7
87 24 15 68 10 89 -11z m982 -118 c169 -113 198 -137 182 -152 -10 -9 -182
-44 -299 -60 -81 -11 -425 -26 -425 -19 0 2 46 52 103 110 56 58 120 131 142
162 45 63 68 78 107 72 15 -2 101 -53 190 -113z m-1220 68 c9 -11 20 -46 23
-78 4 -31 13 -101 21 -155 19 -128 16 -133 -78 -142 -255 -23 -939 -120 -1123
-159 -174 -36 -367 -59 -727 -87 -142 -11 -161 -11 -202 5 -52 20 -90 61 -118
125 -10 24 -34 62 -53 83 -40 44 -43 65 -15 96 57 61 163 90 393 107 257 20
341 30 433 54 162 40 414 77 729 106 210 19 305 30 465 55 69 11 136 21 150
23 37 4 83 -10 102 -33z m2639 -189 c76 -23 155 -37 264 -46 127 -11 355 -65
355 -85 0 -11 -269 -20 -323 -11 -30 5 -62 20 -86 39 -39 31 -41 32 -114 26
-65 -6 -82 -4 -140 20 -36 14 -77 26 -92 26 -33 0 -24 17 19 36 41 17 43 17
117 -5z m-893 -457 c12 -8 20 -20 17 -25 -10 -14 -52 -10 -69 7 -32 32 11 47
52 18z m-1745 -262 c15 -15 27 -31 27 -35 0 -4 -18 -7 -39 -7 -40 0 -71 20
-71 44 0 36 48 35 83 -2z"/>
<path d="M7672 6274 c-12 -8 -20 -19 -17 -24 6 -9 44 -2 63 13 34 27 -8 38
-46 11z"/>
<path d="M5470 5967 c-19 -12 -42 -36 -51 -52 -16 -27 -16 -34 -4 -69 37 -106
155 -132 212 -47 26 38 31 115 10 141 -42 53 -112 65 -167 27z m108 -77 c32
-30 26 -51 -20 -69 -29 -11 -83 11 -102 41 -27 45 78 69 122 28z"/>
<path d="M5793 5881 c-67 -31 -82 -84 -16 -59 16 6 42 8 57 4 69 -17 25 -82
-51 -73 -35 4 -40 2 -36 -12 19 -53 73 -66 130 -31 39 24 54 49 56 100 3 74
-63 107 -140 71z"/>
<path d="M6046 5779 c-44 -38 -54 -83 -31 -132 48 -103 175 -65 175 52 0 39
-6 56 -26 80 -34 41 -72 41 -118 0z m99 -66 c4 -12 -1 -24 -15 -35 -27 -22
-59 -23 -85 -4 -19 14 -19 15 -1 35 25 27 91 29 101 4z"/>
<path d="M6332 5706 c-27 -15 -62 -64 -62 -88 0 -9 12 -30 26 -47 22 -27 32
-31 74 -31 62 0 90 26 90 83 0 29 -7 45 -29 68 -32 31 -62 36 -99 15z m62 -52
c20 -8 21 -38 2 -53 -17 -14 -65 -4 -73 15 -12 31 31 53 71 38z"/>
<path d="M7842 5855 c-35 -15 -35 -35 -1 -35 31 0 91 28 84 40 -9 14 -44 12
-83 -5z"/>
<path d="M7972 4954 c-16 -11 -22 -24 -20 -42 2 -22 9 -28 34 -30 39 -4 86 32
82 62 -4 27 -63 34 -96 10z"/>
<path d="M7769 4920 l-24 -19 22 -1 c34 0 76 22 61 32 -20 12 -34 10 -59 -12z"/>
<path d="M7785 4831 c-25 -11 -60 -49 -52 -57 17 -17 117 32 117 57 0 11 -37
11 -65 0z"/>
<path d="M7356 4752 c-7 -12 11 -27 42 -35 19 -5 23 -2 20 16 -2 15 -11 23
-30 25 -14 2 -29 -1 -32 -6z"/>
<path d="M7890 4718 c-19 -5 -53 -14 -75 -20 l-40 -10 38 -15 c21 -9 36 -21
34 -27 -2 -6 -24 -18 -50 -27 -67 -22 -70 -31 -7 -24 87 11 242 43 252 53 15
15 -1 38 -41 60 -42 24 -58 25 -111 10z"/>
<path d="M7450 4710 c-21 -7 -18 -8 18 -9 26 -1 41 3 37 9 -7 11 -19 11 -55 0z"/>
</g>
</svg>
