<svg version="1.1" id="Layer_1" xmlns="http://www.w3.org/2000/svg" xmlns:xlink="http://www.w3.org/1999/xlink" x="0px" y="0px"
	 width="100%" viewBox="0 0 1080 1080" enable-background="new 0 0 1080 1080" xml:space="preserve">
<path fill="#000000" opacity="0.000000" stroke="none"
	d="
M491.000000,1081.000000
	C327.352173,1081.000000 164.204330,1081.000000 1.028243,1081.000000
	C1.028243,721.060364 1.028243,361.120728 1.028243,1.090556
	C360.898041,1.090556 720.796143,1.090556 1080.847168,1.090556
	C1080.847168,360.999939 1080.847168,720.999939 1080.847168,1081.000000
	C884.453613,1081.000000 687.976807,1081.000000 491.000000,1081.000000
M746.000183,669.457642
	C744.596191,678.218872 753.486572,687.108337 760.720642,688.864807
	C769.594482,691.019470 778.616760,687.376892 783.707153,679.736694
	C789.918701,670.413696 790.224670,664.786255 781.426025,656.731201
	C779.138367,654.636780 777.314880,651.726807 776.091736,648.846008
	C773.926941,643.747314 775.361328,642.521484 780.885803,641.889404
	C788.729675,640.991821 796.738525,640.147034 804.222656,637.819275
	C815.494873,634.313293 825.266235,628.091797 829.355042,616.099548
	C834.051331,602.325378 835.017151,588.104126 832.320435,573.822876
	C830.854248,566.057922 832.243896,560.611755 837.631104,559.171692
	C858.114807,553.696167 878.659546,548.449219 899.143982,542.976562
	C917.288757,538.128845 935.502075,533.431213 951.579224,523.078003
	C957.144409,519.494202 963.410522,517.101135 965.167725,509.311737
	C966.974792,501.301392 963.824402,494.385895 960.429810,488.289581
	C951.522339,472.292847 935.665894,467.093475 918.693115,465.109161
	C907.541687,463.805420 896.509460,465.625244 885.807495,469.017670
	C873.788452,472.827606 861.838379,476.858643 849.780090,480.537018
	C848.198547,481.019501 845.740479,480.498810 844.461243,479.476013
	C843.533752,478.734528 843.372375,476.260162 843.759644,474.793488
	C844.943176,470.310608 846.902283,466.019196 847.919495,461.508942
	C849.341125,455.205231 850.351929,448.794250 851.235718,442.387421
	C852.471985,433.426147 858.039917,426.649353 862.259216,419.137238
	C864.789551,414.632324 867.175110,411.525818 872.969421,410.237183
	C885.920593,407.356873 898.474731,402.742371 911.337585,399.400055
	C924.727051,395.920929 938.301147,393.156769 951.773254,389.989594
	C967.895813,386.199402 984.223328,383.062897 1000.043152,378.262939
	C1016.574341,373.247101 1032.584351,366.525513 1048.865479,360.670105
	C1064.726074,354.965881 1066.415161,338.454803 1059.867310,327.742065
	C1058.491821,325.491455 1055.873535,323.967041 1053.735474,322.221161
	C1038.993652,310.183228 1022.644348,302.125610 1003.141479,302.007263
	C995.975281,301.963776 988.784302,301.639130 981.649902,302.117767
	C976.221375,302.481995 970.774536,303.569458 965.496704,304.949921
	C957.596130,307.016327 949.928406,310.003662 941.996399,311.912018
	C929.168701,314.998230 916.096619,317.099548 903.328186,320.393707
	C885.947510,324.877808 868.787476,330.209106 851.475464,334.968567
	C820.385193,343.515991 789.257812,351.928345 758.135315,360.358276
	C736.297729,366.273285 714.467896,372.220276 692.588135,377.975952
	C671.003052,383.654114 649.313171,388.937347 627.757996,394.724274
	C613.671143,398.506134 599.843567,403.272095 585.718628,406.889435
	C565.322388,412.112823 545.294128,418.134644 526.441162,427.753174
	C518.670288,431.717773 510.191864,431.977325 501.669464,430.212128
	C493.168640,428.451447 484.724548,425.858551 476.136688,425.213684
	C464.631226,424.349731 454.762573,429.285736 445.317902,435.918579
	C432.942841,444.609375 419.252502,450.213593 403.532562,446.966431
	C395.049957,445.214264 394.033142,442.905457 398.085876,435.528259
	C398.395905,434.963867 398.717712,434.405914 399.025970,433.840576
	C404.553711,423.701538 408.224701,413.046600 409.333679,401.425842
	C410.539703,388.788208 412.676514,376.237854 413.808868,363.595856
	C414.083893,360.525360 412.796326,356.550690 410.780396,354.271515
	C409.044861,352.309326 405.036407,351.086914 402.435181,351.595367
	C400.615631,351.951019 398.988464,355.610291 398.149475,358.089844
	C397.040649,361.367004 397.456909,365.241211 396.043427,368.319580
	C391.154633,378.966736 385.636383,389.323090 380.621582,399.915009
	C378.996735,403.346954 377.538391,407.093323 377.135406,410.818237
	C376.339447,418.175690 376.527496,425.634369 375.926086,433.020081
	C375.576569,437.312134 375.965302,443.312439 373.423340,445.441193
	C367.806030,450.145416 361.339325,455.362000 353.018158,453.862427
	C348.857666,453.112671 344.736938,451.351196 340.971680,449.346100
	C329.182648,443.068146 317.644958,436.507568 303.731171,435.863403
	C291.633911,435.303314 279.583435,433.771729 267.488190,433.109558
	C262.921143,432.859528 260.955292,436.678436 260.076569,440.559204
	C259.226746,444.312531 262.103210,448.751587 265.535553,449.842590
	C274.086334,452.560577 282.774170,454.927765 291.128204,458.156891
	C296.984741,460.420624 302.382324,463.871765 307.984863,466.792603
	C298.717133,468.471588 289.946930,469.218536 281.181610,470.018860
	C266.847046,471.327759 252.520691,472.728973 238.181107,473.979279
	C229.190720,474.763153 220.140457,474.998535 211.191925,476.092438
	C197.334061,477.786438 183.589996,480.525024 169.705124,481.852600
	C155.765076,483.185425 141.701096,483.169250 127.713051,484.077393
	C121.735252,484.465454 115.814941,485.717224 109.863838,486.542908
	C96.671608,488.373260 83.480179,490.210297 70.280464,491.985413
	C65.439713,492.636414 60.428986,492.565613 55.757381,493.807800
	C48.370468,495.772064 40.854321,497.862030 34.059757,501.240143
	C29.023951,503.743835 21.906883,505.227539 20.696142,511.985077
	C19.471472,518.820435 18.960770,526.002014 19.597052,532.897217
	C20.392212,541.514221 26.882856,547.431641 32.226307,553.652710
	C36.418045,558.532898 41.338371,562.823669 45.236393,567.911560
	C51.751633,576.415588 59.714596,580.798889 70.573624,579.005188
	C72.818832,578.634277 75.070915,578.296570 77.327972,578.007019
	C90.404335,576.329712 103.588509,575.245422 116.535873,572.869080
	C134.914490,569.495850 153.057404,564.849304 171.418793,561.367920
	C185.275085,558.740540 199.321228,557.120972 213.270920,554.975220
	C216.758240,554.438782 218.590958,556.361511 219.576401,559.142578
	C220.376251,561.399902 220.662842,563.864319 220.979401,566.263000
	C222.023315,574.173401 222.840485,582.115906 224.013794,590.006104
	C224.811493,595.370422 223.485153,601.116760 220.273285,601.787842
	C212.401016,603.432434 204.532181,605.898621 196.404251,602.203613
	C193.420013,600.846924 189.663620,599.688721 186.603683,600.265747
	C175.079712,602.438416 163.705917,605.400085 152.259506,607.994019
	C143.335526,610.016296 135.024017,619.981262 137.949860,631.295715
	C140.879730,642.625732 147.882599,651.698730 153.763824,661.461426
	C158.166870,668.770386 164.044693,673.645996 172.313568,674.558105
	C178.286880,675.216980 184.445984,674.343140 190.511673,673.977661
	C200.179947,673.395081 209.904617,673.155334 219.486267,671.877197
	C231.662582,670.252808 243.702805,667.632996 255.832870,665.631165
	C271.828156,662.991394 287.853027,660.530762 303.866455,658.001465
	C313.640106,656.457703 323.406311,654.862366 333.194031,653.413147
	C343.639740,651.866516 354.093140,650.354980 364.570343,649.045105
	C369.940857,648.373657 375.368774,647.945312 380.774658,647.902893
	C382.425537,647.889954 384.089355,649.526794 385.747284,650.408081
	C384.314545,651.604614 383.053284,653.383484 381.410675,653.867004
	C378.651764,654.679138 375.577789,654.369507 372.763763,655.054810
	C362.250427,657.615295 352.081573,670.219055 354.681000,683.817566
	C355.992493,690.678467 359.179230,695.830261 363.320160,700.763733
	C369.806824,708.492004 377.892822,712.087952 388.028839,708.975586
	C392.919006,707.473938 397.787750,705.862183 402.559448,704.023315
	C412.629242,700.142944 418.636444,686.761597 413.092560,675.347412
	C410.829803,670.688599 411.878632,664.993042 415.590607,660.916992
	C418.491119,657.731995 421.032013,654.135315 424.291687,651.383789
	C428.048981,648.212158 432.148193,644.034241 436.577057,643.338867
	C449.005951,641.387390 461.684509,641.046753 474.257111,639.981995
	C481.262909,639.388611 488.291779,638.880249 495.242950,637.870361
	C507.420715,636.101074 519.527222,633.838013 531.710266,632.110718
	C534.252319,631.750244 536.996826,632.816895 539.648010,633.225830
	C538.857788,635.574158 538.284546,638.024475 537.238281,640.252563
	C533.478027,648.259644 532.167419,656.575745 536.335754,664.550110
	C543.857849,678.940552 556.129883,684.885376 571.582520,682.801331
	C578.702881,681.841003 585.657043,678.594238 589.450867,671.865601
	C592.551086,666.367249 594.970276,660.410889 597.063599,654.437561
	C599.680603,646.969910 596.595398,640.866455 591.215454,635.692871
	C588.806458,633.376221 586.341125,631.118103 583.732239,628.675171
	C591.583557,624.743225 601.091309,624.006042 605.628113,625.368103
	C620.096924,629.712036 634.340820,634.761658 649.425354,636.840271
	C659.684692,638.253967 669.803772,640.901489 680.091187,641.842896
	C694.202820,643.134399 708.411682,643.397522 722.583984,643.978210
	C733.330200,644.418518 744.083191,644.826782 754.835693,644.908142
	C758.351013,644.934814 760.439880,645.819214 760.891418,649.683838
	C752.780945,653.403625 745.232605,657.743713 746.000183,669.457642
z"/>
<path fill="#F7F3E8" opacity="1.000000" stroke="none"
	d="
M746.000122,669.003540
	C745.232605,657.743713 752.780945,653.403625 760.891418,649.683838
	C760.439880,645.819214 758.351013,644.934814 754.835693,644.908142
	C744.083191,644.826782 733.330200,644.418518 722.583984,643.978210
	C708.411682,643.397522 694.202820,643.134399 680.091187,641.842896
	C669.803772,640.901489 659.684692,638.253967 649.425354,636.840271
	C634.340820,634.761658 620.096924,629.712036 605.628113,625.368103
	C601.091309,624.006042 591.583557,624.743225 583.732239,628.675171
	C586.341125,631.118103 588.806458,633.376221 591.215454,635.692871
	C596.595398,640.866455 599.680603,646.969910 597.063599,654.437561
	C594.970276,660.410889 592.551086,666.367249 589.450867,671.865601
	C585.657043,678.594238 578.702881,681.841003 571.582520,682.801331
	C556.129883,684.885376 543.857849,678.940552 536.335754,664.550110
	C532.167419,656.575745 533.478027,648.259644 537.238281,640.252563
	C538.284546,638.024475 538.857788,635.574158 539.648010,633.225830
	C536.996826,632.816895 534.252319,631.750244 531.710266,632.110718
	C519.527222,633.838013 507.420715,636.101074 495.242950,637.870361
	C488.291779,638.880249 481.262909,639.388611 474.257111,639.981995
	C461.684509,641.046753 449.005951,641.387390 436.577057,643.338867
	C432.148193,644.034241 428.048981,648.212158 424.291687,651.383789
	C421.032013,654.135315 418.491119,657.731995 415.590607,660.916992
	C411.878632,664.993042 410.829803,670.688599 413.092560,675.347412
	C418.636444,686.761597 412.629242,700.142944 402.559448,704.023315
	C397.787750,705.862183 392.919006,707.473938 388.028839,708.975586
	C377.892822,712.087952 369.806824,708.492004 363.320160,700.763733
	C359.179230,695.830261 355.992493,690.678467 354.681000,683.817566
	C352.081573,670.219055 362.250427,657.615295 372.763763,655.054810
	C375.577789,654.369507 378.651764,654.679138 381.410675,653.867004
	C383.053284,653.383484 384.314545,651.604614 385.747253,650.408081
	C384.089355,649.526794 382.425537,647.889954 380.774658,647.902893
	C375.368774,647.945312 369.940857,648.373657 364.570343,649.045105
	C354.093140,650.354980 343.639740,651.866516 333.194031,653.413147
	C323.406311,654.862366 313.640106,656.457703 303.866455,658.001465
	C287.853027,660.530762 271.828156,662.991394 255.832870,665.631165
	C243.702805,667.632996 231.662582,670.252808 219.486267,671.877197
	C209.904617,673.155334 200.179947,673.395081 190.511673,673.977661
	C184.445984,674.343140 178.286880,675.216980 172.313568,674.558105
	C164.044693,673.645996 158.166870,668.770386 153.763824,661.461426
	C147.882599,651.698730 140.879730,642.625732 137.949860,631.295715
	C135.024017,619.981262 143.335526,610.016296 152.259506,607.994019
	C163.705917,605.400085 175.079712,602.438416 186.603683,600.265747
	C189.663620,599.688721 193.420013,600.846924 196.404251,602.203613
	C204.532181,605.898621 212.401016,603.432434 220.273285,601.787842
	C223.485153,601.116760 224.811493,595.370422 224.013794,590.006104
	C222.840485,582.115906 222.023315,574.173401 220.979401,566.263000
	C220.662842,563.864319 220.376251,561.399902 219.576401,559.142578
	C218.590958,556.361511 216.758240,554.438782 213.270920,554.975220
	C199.321228,557.120972 185.275085,558.740540 171.418793,561.367920
	C153.057404,564.849304 134.914490,569.495850 116.535873,572.869080
	C103.588509,575.245422 90.404335,576.329712 77.327972,578.007019
	C75.070915,578.296570 72.818832,578.634277 70.573624,579.005188
	C59.714596,580.798889 51.751633,576.415588 45.236393,567.911560
	C41.338371,562.823669 36.418045,558.532898 32.226307,553.652710
	C26.882856,547.431641 20.392212,541.514221 19.597052,532.897217
	C18.960770,526.002014 19.471472,518.820435 20.696142,511.985077
	C21.906883,505.227539 29.023951,503.743835 34.059757,501.240143
	C40.854321,497.862030 48.370468,495.772064 55.757381,493.807800
	C60.428986,492.565613 65.439713,492.636414 70.280464,491.985413
	C83.480179,490.210297 96.671608,488.373260 109.863838,486.542908
	C115.814941,485.717224 121.735252,484.465454 127.713051,484.077393
	C141.701096,483.169250 155.765076,483.185425 169.705124,481.852600
	C183.589996,480.525024 197.334061,477.786438 211.191925,476.092438
	C220.140457,474.998535 229.190720,474.763153 238.181107,473.979279
	C252.520691,472.728973 266.847046,471.327759 281.181610,470.018860
	C289.946930,469.218536 298.717133,468.471588 307.984863,466.792603
	C302.382324,463.871765 296.984741,460.420624 291.128204,458.156891
	C282.774170,454.927765 274.086334,452.560577 265.535553,449.842590
	C262.103210,448.751587 259.226746,444.312531 260.076569,440.559204
	C260.955292,436.678436 262.921143,432.859528 267.488190,433.109558
	C279.583435,433.771729 291.633911,435.303314 303.731171,435.863403
	C317.644958,436.507568 329.182648,443.068146 340.971680,449.346100
	C344.736938,451.351196 348.857666,453.112671 353.018158,453.862427
	C361.339325,455.362000 367.806030,450.145416 373.423340,445.441193
	C375.965302,443.312439 375.576569,437.312134 375.926086,433.020081
	C376.527496,425.634369 376.339447,418.175690 377.135406,410.818237
	C377.538391,407.093323 378.996735,403.346954 380.621582,399.915009
	C385.636383,389.323090 391.154633,378.966736 396.043427,368.319580
	C397.456909,365.241211 397.040649,361.367004 398.149475,358.089844
	C398.988464,355.610291 400.615631,351.951019 402.435181,351.595367
	C405.036407,351.086914 409.044861,352.309326 410.780396,354.271515
	C412.796326,356.550690 414.083893,360.525360 413.808868,363.595856
	C412.676514,376.237854 410.539703,388.788208 409.333679,401.425842
	C408.224701,413.046600 404.553711,423.701538 399.025970,433.840576
	C398.717712,434.405914 398.395905,434.963867 398.085876,435.528259
	C394.033142,442.905457 395.049957,445.214264 403.532562,446.966431
	C419.252502,450.213593 432.942841,444.609375 445.317902,435.918579
	C454.762573,429.285736 464.631226,424.349731 476.136688,425.213684
	C484.724548,425.858551 493.168640,428.451447 501.669464,430.212128
	C510.191864,431.977325 518.670288,431.717773 526.441162,427.753174
	C545.294128,418.134644 565.322388,412.112823 585.718628,406.889435
	C599.843567,403.272095 613.671143,398.506134 627.757996,394.724274
	C649.313171,388.937347 671.003052,383.654114 692.588135,377.975952
	C714.467896,372.220276 736.297729,366.273285 758.135315,360.358276
	C789.257812,351.928345 820.385193,343.515991 851.475464,334.968567
	C868.787476,330.209106 885.947510,324.877808 903.328186,320.393707
	C916.096619,317.099548 929.168701,314.998230 941.996399,311.912018
	C949.928406,310.003662 957.596130,307.016327 965.496704,304.949921
	C970.774536,303.569458 976.221375,302.481995 981.649902,302.117767
	C988.784302,301.639130 995.975281,301.963776 1003.141479,302.007263
	C1022.644348,302.125610 1038.993652,310.183228 1053.735474,322.221161
	C1055.873535,323.967041 1058.491821,325.491455 1059.867310,327.742065
	C1066.415161,338.454803 1064.726074,354.965881 1048.865479,360.670105
	C1032.584351,366.525513 1016.574341,373.247101 1000.043152,378.262939
	C984.223328,383.062897 967.895813,386.199402 951.773254,389.989594
	C938.301147,393.156769 924.727051,395.920929 911.337585,399.400055
	C898.474731,402.742371 885.920593,407.356873 872.969421,410.237183
	C867.175110,411.525818 864.789551,414.632324 862.259216,419.137238
	C858.039917,426.649353 852.471985,433.426147 851.235718,442.387421
	C850.351929,448.794250 849.341125,455.205231 847.919495,461.508942
	C846.902283,466.019196 844.943176,470.310608 843.759644,474.793488
	C843.372375,476.260162 843.533752,478.734528 844.461243,479.476013
	C845.740479,480.498810 848.198547,481.019501 849.780090,480.537018
	C861.838379,476.858643 873.788452,472.827606 885.807495,469.017670
	C896.509460,465.625244 907.541687,463.805420 918.693115,465.109161
	C935.665894,467.093475 951.522339,472.292847 960.429810,488.289581
	C963.824402,494.385895 966.974792,501.301392 965.167725,509.311737
	C963.410522,517.101135 957.144409,519.494202 951.579224,523.078003
	C935.502075,533.431213 917.288757,538.128845 899.143982,542.976562
	C878.659546,548.449219 858.114807,553.696167 837.631104,559.171692
	C832.243896,560.611755 830.854248,566.057922 832.320435,573.822876
	C835.017151,588.104126 834.051331,602.325378 829.355042,616.099548
	C825.266235,628.091797 815.494873,634.313293 804.222656,637.819275
	C796.738525,640.147034 788.729675,640.991821 780.885803,641.889404
	C775.361328,642.521484 773.926941,643.747314 776.091736,648.846008
	C777.314880,651.726807 779.138367,654.636780 781.426025,656.731201
	C790.224670,664.786255 789.918701,670.413696 783.707153,679.736694
	C778.616760,687.376892 769.594482,691.019470 760.720642,688.864807
	C753.486572,687.108337 744.596191,678.218872 746.000122,669.003540
M772.998230,623.021606
	C772.998230,623.021606 772.927734,622.954834 773.265198,623.743591
	C781.242310,623.829285 789.305115,624.685303 797.175293,623.809509
	C807.478394,622.663147 814.393738,619.826843 817.067749,609.933533
	C818.710205,603.856812 818.233643,602.881470 812.131104,601.909058
	C810.996521,601.728333 809.160461,600.331909 809.209045,599.600098
	C809.291504,598.356873 810.434448,596.992676 811.476685,596.067932
	C812.242798,595.388123 813.543396,595.258972 814.633972,595.005615
	C818.688538,594.063599 819.824158,591.906616 818.529907,587.791931
	C817.935059,585.900818 818.372803,583.268005 819.262573,581.412903
	C821.171936,577.431824 821.610413,573.757263 818.697815,570.224976
	C815.550171,566.407715 811.323181,565.615051 805.771484,567.998718
	C807.453613,567.998718 808.439331,567.931519 809.412842,568.011536
	C812.081909,568.231201 815.237244,568.635681 814.717590,572.035645
	C814.528687,573.271484 811.283508,574.493286 809.265381,574.908936
	C803.873047,576.019714 798.395935,576.730469 792.941223,577.523254
	C788.055298,578.233459 783.154419,578.841248 778.260132,579.494202
	C778.171265,579.028381 778.082397,578.562622 777.993530,578.096802
	C780.529358,576.838501 783.065186,575.580261 785.601013,574.322021
	C750.813110,580.716553 716.728943,589.722595 682.489075,601.743896
	C698.913086,609.720703 715.454468,613.977478 732.391052,615.761353
	C732.236328,614.117004 732.105774,612.728821 731.978699,611.378296
	C736.816956,610.220276 740.097778,610.760986 738.912415,617.126404
	C750.535339,619.156799 761.800110,621.124573 772.998230,623.021606
M642.953674,459.559326
	C648.805420,457.403168 654.594910,455.055817 660.520508,453.126251
	C679.368835,446.988770 698.096863,440.387573 717.189026,435.116180
	C743.029297,427.981598 769.196655,422.039337 795.156860,415.327271
	C805.840027,412.565216 816.303955,408.965942 826.948181,406.040375
	C843.953796,401.366394 861.010742,396.876190 878.075378,392.420837
	C895.473328,387.878510 912.906799,383.472229 930.324646,379.006012
	C955.031555,372.670807 979.897034,366.881165 1004.376953,359.765137
	C1016.278320,356.305603 1027.510254,350.482391 1038.917114,345.439423
	C1040.941040,344.544647 1042.563232,342.386658 1043.914429,340.487274
	C1044.515015,339.643097 1044.526367,337.369659 1043.879150,336.803497
	C1037.216797,330.976074 1030.921387,324.442932 1021.993896,322.075439
	C1015.929138,320.467163 1009.750488,319.268646 1003.593811,318.031219
	C992.821289,315.866089 982.198608,315.091370 971.624084,319.620850
	C966.659302,321.747406 961.172485,322.713684 955.867798,323.977020
	C939.139465,327.960907 922.322327,331.588562 905.657227,335.817383
	C885.291443,340.985260 864.999023,346.458221 844.758301,352.098541
	C820.347168,358.901001 796.065369,366.167908 771.647583,372.945374
	C755.404419,377.453857 739.022827,381.463623 722.700500,385.685852
	C702.945801,390.795929 683.158813,395.783844 663.439819,401.027924
	C641.884399,406.760376 620.376160,412.672485 598.875244,418.607086
	C584.193604,422.659485 569.544250,426.831299 554.910400,431.053406
	C546.557556,433.463409 538.264709,436.081299 528.664246,438.994141
	C536.745300,442.363556 543.643860,445.141937 550.463074,448.103119
	C565.568420,454.662476 580.561523,461.488098 595.769104,467.798615
	C599.351135,469.285004 603.627258,469.764221 607.536377,469.596375
	C610.942383,469.450195 614.264282,467.677887 617.653015,466.730164
	C625.833984,464.442139 634.032166,462.216156 642.953674,459.559326
M183.559082,544.000488
	C186.468338,543.643005 189.386078,543.343201 192.285400,542.918030
	C205.607483,540.964600 218.923019,538.966797 232.243622,537.003235
	C242.034836,535.560059 251.842194,534.221985 261.620361,532.696228
	C271.049652,531.224915 280.452484,529.583130 289.863831,527.997864
	C299.430908,526.386353 308.979431,524.658142 318.563019,523.152283
	C330.093079,521.340576 341.656555,519.742249 353.195587,517.985901
	C358.683502,517.150574 361.865509,516.495667 358.100403,509.574982
	C353.326294,500.799713 350.943970,491.629364 351.801025,481.536896
	C351.946014,479.829651 349.645081,476.493317 348.179443,476.313629
	C341.361023,475.477600 334.040283,473.892700 327.629700,475.496094
	C309.328674,480.073547 290.598083,480.504089 272.093170,482.953796
	C260.130585,484.537415 248.083725,485.485535 236.122772,487.079773
	C222.939163,488.836945 209.841507,491.249481 196.649460,492.929596
	C183.689713,494.580170 170.660690,495.691193 157.658081,496.999603
	C144.162247,498.357605 130.653122,499.588470 117.166580,501.031677
	C109.888428,501.810516 102.637672,502.862976 95.388367,503.889526
	C86.073273,505.208557 76.646553,506.074524 67.500717,508.157745
	C58.639061,510.176208 49.726547,512.724426 41.475334,516.453674
	C33.555092,520.033386 33.012894,525.093689 38.144943,532.561218
	C42.894699,539.472473 47.537033,546.483459 52.710972,553.070068
	C57.709534,559.433289 63.695713,564.353943 72.796257,563.062439
	C77.660477,562.371948 82.642441,562.542908 87.526657,561.954712
	C96.066116,560.926270 104.636307,559.952637 113.075600,558.338806
	C126.195450,555.829956 139.203140,552.740173 152.283661,550.018311
	C162.390457,547.915283 172.536102,545.999023 183.559082,544.000488
M768.492126,522.999878
	C752.926819,527.000244 737.394592,531.135376 721.788513,534.970093
	C696.959534,541.071167 672.098083,547.042725 647.216736,552.927185
	C635.139648,555.783386 623.045715,558.636597 610.850403,560.905273
	C599.539124,563.009521 588.053284,564.167542 576.720825,566.174500
	C574.940491,566.489807 572.377197,568.970459 572.194397,570.667419
	C570.843384,583.208252 569.889893,595.796692 569.064636,608.386780
	C568.769531,612.889282 570.314270,613.750610 574.829346,612.606873
	C579.815308,611.343750 584.785645,609.937378 589.843750,609.060364
	C597.356750,607.757812 605.136536,607.599487 612.454529,605.648193
	C628.379639,601.401855 644.064209,596.260620 659.884277,591.611755
	C687.703796,583.436768 715.506775,575.200256 743.404968,567.300964
	C757.923401,563.190063 772.644531,559.799622 787.248535,555.985779
	C811.317566,549.700256 835.397156,543.451172 859.410828,536.959351
	C873.481445,533.155640 887.529663,529.212402 901.401855,524.753174
	C909.724487,522.077820 918.086914,519.006470 925.698059,514.789368
	C932.818787,510.843933 938.972351,505.152802 945.478210,500.284851
	C940.933411,491.881927 933.910522,485.726410 924.300171,482.801392
	C917.994263,480.882050 911.695312,482.305878 905.324463,482.883179
	C892.704041,484.026733 880.260254,485.826172 868.259521,489.985199
	C845.866455,497.745850 823.556274,505.748871 801.112366,513.358398
	C790.639771,516.909119 779.935608,519.776672 768.492126,522.999878
M412.629822,499.999420
	C411.970398,500.045776 411.063171,499.831848 410.694183,500.183197
	C409.048157,501.750488 406.883484,503.277191 406.294800,505.235901
	C406.004944,506.200226 408.520935,508.403259 410.150482,509.447906
	C412.132812,510.718719 414.608826,511.188904 416.716858,512.298706
	C446.088043,527.761536 476.095276,541.703491 508.210999,550.591797
	C516.382874,552.853455 524.546265,556.160522 532.851501,556.651184
	C541.832031,557.181641 551.009338,555.219299 560.037109,553.905945
	C572.045898,552.159058 584.035706,550.212524 595.956726,547.946716
	C613.366882,544.637451 630.739136,541.111084 648.070007,537.407776
	C662.295227,534.368103 676.436462,530.935608 691.414795,527.493347
	C689.300476,526.103455 687.832458,524.802185 686.121277,524.066956
	C672.726196,518.311646 659.209106,512.835510 645.874023,506.946259
	C623.569519,497.095734 601.381531,486.981598 579.125671,477.020538
	C566.830322,471.517548 554.511169,466.067047 542.168274,460.671722
	C539.664246,459.577179 537.317810,459.028870 535.731812,462.527527
	C534.351379,465.572632 532.449829,468.473053 530.312256,471.050781
	C528.923462,472.725494 526.745605,474.739563 524.839966,474.826904
	C514.347290,475.307678 503.862000,475.248199 493.587341,472.266144
	C476.022766,467.168335 458.507416,461.815857 440.733521,457.565033
	C433.338989,455.796600 425.252075,455.886841 417.820862,459.607605
	C418.479614,462.017242 419.187469,463.980713 419.522705,466.005890
	C419.870026,468.104279 419.864380,470.261993 419.998749,472.394653
	C420.465302,479.799255 423.520020,482.064697 430.920502,483.173492
	C438.127136,484.253235 445.414551,486.044922 452.130005,488.821564
	C459.765015,491.978363 466.874084,496.453522 474.081573,500.582855
	C479.478790,503.675079 484.973083,506.743835 489.824219,510.581421
	C492.238342,512.491272 493.304993,516.104370 494.981232,518.946960
	C491.744141,519.964539 488.494263,521.867859 485.272461,521.821472
	C477.773987,521.713501 470.301086,520.401611 462.795868,520.061340
	C451.445740,519.546753 441.702728,515.330078 432.333771,509.101349
	C426.573059,505.271515 419.788910,502.981140 412.629822,499.999420
M174.572235,656.058228
	C179.058029,659.589844 183.881744,657.441711 188.679077,657.058044
	C199.330978,656.205994 210.015457,655.766785 220.671631,654.960449
	C226.849655,654.492981 233.043808,653.912598 239.150482,652.899597
	C249.822006,651.129272 260.417114,648.903625 271.071472,647.023193
	C281.111755,645.251099 291.181122,643.640442 301.249207,642.030640
	C307.973663,640.955444 314.701538,639.871704 321.457886,639.033325
	C330.684814,637.888489 339.947876,637.037903 349.181396,635.942688
	C359.686981,634.696594 370.159943,633.154297 380.680969,632.068848
	C386.068390,631.513000 387.728943,629.936035 386.995483,624.613525
	C385.997345,617.370422 384.938110,610.135071 384.015503,602.882324
	C383.089020,595.599426 378.214294,591.928650 371.709137,592.994263
	C356.342285,595.511536 340.952911,597.949585 325.508820,599.919006
	C312.055634,601.634521 298.454102,602.229492 285.029053,604.111084
	C269.507233,606.286560 254.170258,609.805359 238.637390,611.871460
	C219.722137,614.387390 200.700729,616.150696 181.696167,617.928894
	C173.326981,618.711975 165.686646,621.458984 158.422928,625.309937
	C153.965851,627.672913 153.824829,632.156128 157.364975,635.920654
	C159.367493,638.050110 161.959702,640.157104 162.787628,642.752319
	C164.719177,648.806946 168.270340,653.090576 174.572235,656.058228
M718.412903,499.035095
	C721.427795,482.527924 726.839966,466.845581 734.512085,451.924530
	C735.200195,450.586273 735.401672,448.997803 735.829163,447.525513
	C734.018616,447.096924 732.024780,445.953308 730.429016,446.362427
	C723.134827,448.232513 715.881409,450.327362 708.743713,452.728943
	C691.434570,458.552826 674.187195,464.561462 656.936401,470.557312
	C647.538330,473.823792 638.183960,477.215942 627.454468,481.033752
	C631.935181,483.482971 635.033569,485.468201 638.360291,486.935577
	C645.808350,490.220673 653.595825,492.802368 660.839905,496.470581
	C677.359619,504.835632 693.994873,512.737122 712.622925,515.064270
	C713.953430,515.230530 716.580444,513.653748 716.800415,512.533203
	C717.615356,508.382019 717.673767,504.082367 718.412903,499.035095
M387.354431,576.996582
	C389.764191,576.659607 392.202118,576.458313 394.579224,575.964233
	C413.308044,572.071777 432.025238,568.123413 450.746002,564.192261
	C450.885925,563.713867 451.025848,563.235413 451.165771,562.756958
	C427.555573,550.296631 403.945404,537.836304 380.281891,525.347839
	C380.940765,545.358337 366.593231,560.786133 363.075409,579.995483
	C364.311279,579.995483 365.310364,580.113953 366.272858,579.976379
	C373.004761,579.013855 379.729126,577.998413 387.354431,576.996582
M338.225983,584.003845
	C341.680084,582.995300 343.392914,580.792908 342.996704,577.109009
	C342.647614,573.863220 342.038849,570.612427 342.054962,567.366394
	C342.102783,557.728149 343.616882,548.416443 348.541229,539.861633
	C350.834076,535.878418 349.857880,534.344910 345.343689,535.117249
	C341.776123,535.727600 337.889954,536.678284 335.012085,538.707275
	C326.152252,544.953796 317.726807,551.814636 309.098022,558.391357
	C298.172394,566.718689 287.251160,575.052612 276.249786,583.279053
	C271.643402,586.723572 266.836121,589.899353 261.328156,593.751160
	C265.837280,593.442200 269.066925,593.278320 272.285309,592.988708
	C279.612976,592.329224 286.958344,591.791321 294.253448,590.864807
	C302.935608,589.762085 311.578705,588.342468 320.227173,586.986633
	C325.957001,586.088318 331.666534,585.060669 338.225983,584.003845
M305.014557,545.429626
	C306.639221,544.198181 308.263885,542.966736 310.529205,541.249695
	C306.949554,540.787354 304.180847,539.788330 301.644257,540.204407
	C282.694122,543.312805 263.811676,546.833679 244.861526,549.942078
	C236.243866,551.355652 232.949829,554.352966 234.030884,561.315979
	C235.243484,569.126343 236.612350,576.914062 238.043198,584.687744
	C238.374741,586.488953 239.257141,589.686890 239.845169,589.677490
	C242.109314,589.641418 244.730209,589.087769 246.548553,587.789368
	C256.516724,580.671753 266.222290,573.187683 276.143250,566.002258
	C285.520599,559.210510 295.052704,552.632385 305.014557,545.429626
M743.005432,514.492493
	C747.000305,513.328491 750.995239,512.164612 754.990051,511.000366
	C769.868408,506.664307 784.793884,502.479858 799.591797,497.884644
	C803.260925,496.745270 806.082336,493.606781 805.903381,489.460907
	C805.594421,482.304138 804.514038,475.183502 804.085510,468.028076
	C803.782288,462.964569 801.100281,463.348236 797.759338,464.762878
	C796.289978,465.385040 794.851929,466.144836 793.525391,467.030396
	C783.104370,473.987335 772.755310,481.052795 762.299377,487.956543
	C755.208313,492.638611 747.739685,496.786346 740.910889,501.812897
	C737.262512,504.498413 734.576660,508.508972 731.533691,511.989105
	C730.616699,513.037903 729.959229,514.313660 729.182861,515.485413
	C730.942139,516.056946 732.754089,517.216431 734.448669,517.064819
	C737.116028,516.826172 739.704407,515.705200 743.005432,514.492493
M415.970551,620.091309
	C415.861542,622.095886 414.916595,625.130920 415.831604,625.873169
	C417.357635,627.111145 420.245575,627.586914 422.248352,627.100342
	C425.070557,626.414734 427.862488,624.895325 430.209137,623.125000
	C433.863617,620.368042 437.226471,617.198669 440.547363,614.030579
	C448.683777,606.268433 456.820099,598.501404 464.757416,590.537842
	C467.793823,587.491394 470.287659,583.904114 473.661133,579.792542
	C471.290039,578.935120 469.456360,577.570984 467.853882,577.803162
	C454.737061,579.703125 441.639435,581.766052 428.589172,584.079407
	C423.895355,584.911377 419.632172,587.045959 418.943787,592.565735
	C417.838684,601.426819 416.968109,610.317261 415.970551,620.091309
M474.967010,600.359253
	C467.957611,608.261902 460.948242,616.164551 453.283844,624.805725
	C476.540802,624.959351 499.320648,622.940430 522.879028,616.874146
	C520.096924,614.701538 518.275452,613.108826 516.289246,611.758606
	C509.096375,606.868896 501.867462,602.031616 494.616333,597.228577
	C483.826019,590.081177 483.813049,590.100769 474.967010,600.359253
M769.907471,450.997986
	C772.281982,451.005188 774.664978,451.472900 776.130249,448.567200
	C776.597290,447.640900 778.584473,447.257843 779.942200,447.041687
	C786.523621,445.993988 793.127563,445.087555 800.768311,443.979553
	C794.945740,439.655518 789.624207,439.492554 783.999634,440.441071
	C777.144775,441.597076 770.253784,442.538605 763.378357,443.572906
	C763.144836,443.081421 762.911255,442.589935 762.677673,442.098450
	C763.468262,441.214264 764.094055,439.937500 765.081726,439.522858
	C767.576233,438.475677 770.194580,437.650055 772.832825,437.032623
	C781.074524,435.103821 789.348328,433.312531 797.609680,431.467896
	C796.979736,430.694885 796.414001,430.553314 795.888916,430.644928
	C787.621643,432.087677 779.377075,433.669525 771.091736,434.997467
	C761.756897,436.493591 754.307800,440.967133 749.541870,449.100586
	C747.139893,453.199921 746.488525,458.397583 743.824890,462.255859
	C738.501099,469.967285 736.873962,478.685730 735.796448,488.431091
	C752.906555,477.054474 770.016663,465.677826 787.126770,454.301208
	C786.905029,453.773560 786.683228,453.245880 786.461487,452.718231
	C782.677490,453.055695 777.579651,451.992889 775.398987,454.039093
	C771.549683,457.650940 768.118469,456.933167 762.743530,456.533508
	C765.478271,454.148590 767.283569,452.574280 769.907471,450.997986
M516.644897,594.949463
	C527.174866,601.773438 537.704834,608.597412 548.952087,615.886169
	C548.952087,613.632812 549.237854,612.539856 548.908508,611.683411
	C545.000427,601.520569 540.828186,591.455933 537.099060,581.229126
	C535.291748,576.272644 531.309692,574.066895 527.003601,573.175781
	C517.830566,571.277649 508.605804,571.500244 499.328186,573.747864
	C495.958801,574.564148 494.339111,575.867859 493.069824,579.246826
	C500.766357,584.360046 508.403961,589.434143 516.644897,594.949463
M819.003967,481.415466
	C819.650208,483.596954 820.296509,485.778442 820.942749,487.959930
	C823.429688,487.007812 826.331360,486.554993 828.271057,484.944000
	C829.796265,483.677307 830.445129,481.053650 830.946594,478.907379
	C833.396729,468.419769 835.432556,457.829346 838.136841,447.410767
	C838.998718,444.090454 838.672974,441.946289 836.217773,439.832642
	C830.972778,443.514893 825.644592,446.664032 821.106384,450.701294
	C818.967712,452.603912 817.250000,456.212646 817.252319,459.046783
	C817.257996,466.194489 818.348267,473.341370 819.003967,481.415466
M647.447571,616.002808
	C642.448059,615.078796 637.303955,611.597412 633.078979,616.252991
	C636.344788,617.344055 639.834717,618.420288 643.258850,619.676147
	C647.812988,621.346497 652.232788,623.077820 657.239868,621.060974
	C661.754578,619.242432 665.483887,620.938660 668.877380,624.223816
	C670.540161,625.833557 672.823975,627.745422 674.894714,627.828613
	C684.419434,628.211182 693.968140,627.997192 703.508240,627.997192
	C703.752625,627.624634 703.997009,627.252014 704.241455,626.879456
	C703.627991,626.633240 703.035217,626.277954 702.397949,626.156982
	C691.495667,624.087341 680.589111,622.040100 669.680847,620.001770
	C662.556458,618.670593 655.427917,617.361633 647.447571,616.002808
M406.515045,593.020874
	C405.381439,588.897949 401.895996,589.636414 399.308075,590.268860
	C398.198395,590.540039 396.967590,593.592651 397.135620,595.244812
	C397.843964,602.209534 399.059021,609.122681 400.088684,616.054688
	C400.559113,616.185303 401.029572,616.315918 401.500000,616.446472
	C402.329865,615.185486 403.488983,614.028809 403.927582,612.643921
	C405.226166,608.543762 406.454895,604.395264 407.273773,600.180725
	C407.672974,598.126099 407.100037,595.882507 406.515045,593.020874
M832.305908,420.999084
	C827.568298,422.329102 822.751404,423.439758 818.135742,425.107330
	C816.504700,425.696594 814.214905,427.693909 814.268066,428.962799
	C814.349731,430.911591 815.937866,433.052704 817.455994,434.525360
	C817.894104,434.950348 820.299316,433.393158 821.774597,432.685913
	C822.636719,432.272583 823.500366,431.820068 824.265076,431.252747
	C828.858521,427.844849 833.423523,424.398468 837.998047,420.964996
	C837.741638,420.608002 837.485229,420.251007 837.228882,419.894012
	C835.864929,420.262299 834.501038,420.630554 832.305908,420.999084
M556.963379,583.162415
	C556.944397,581.199585 556.618896,579.180420 556.967712,577.285278
	C557.794556,572.793335 555.859009,569.090759 552.755127,570.190186
	C551.275452,570.714294 549.381653,573.384705 549.589600,574.802002
	C550.672363,582.180725 553.177429,585.014526 556.963379,583.162415
M484.655914,440.999634
	C483.225952,441.393372 481.795959,441.787109 480.365997,442.180847
	C480.369812,442.709839 480.373627,443.238831 480.377441,443.767853
	C484.079071,444.069092 487.780701,444.370361 491.482330,444.671631
	C491.579010,444.014221 491.675690,443.356842 491.772339,442.699432
	C489.672607,442.132843 487.572876,441.566254 484.655914,440.999634
M501.045929,447.346527
	C503.593048,449.667664 506.155518,451.552673 509.401733,448.047211
	C506.613312,444.960785 504.037506,444.270233 501.045929,447.346527
M381.287811,689.998657
	C381.678223,689.321838 382.518280,688.160461 382.390533,688.041870
	C380.834625,686.598022 379.136444,685.307434 377.032379,683.622559
	C375.017639,688.259766 377.172882,689.487122 381.287811,689.998657
z"/>
<path fill="#000000" opacity="0.000000" stroke="none"
	d="
M642.588562,459.762268
	C634.032166,462.216156 625.833984,464.442139 617.653015,466.730164
	C614.264282,467.677887 610.942383,469.450195 607.536377,469.596375
	C603.627258,469.764221 599.351135,469.285004 595.769104,467.798615
	C580.561523,461.488098 565.568420,454.662476 550.463074,448.103119
	C543.643860,445.141937 536.745300,442.363556 528.664246,438.994141
	C538.264709,436.081299 546.557556,433.463409 554.910400,431.053406
	C569.544250,426.831299 584.193604,422.659485 598.875244,418.607086
	C620.376160,412.672485 641.884399,406.760376 663.439819,401.027924
	C683.158813,395.783844 702.945801,390.795929 722.700500,385.685852
	C739.022827,381.463623 755.404419,377.453857 771.647583,372.945374
	C796.065369,366.167908 820.347168,358.901001 844.758301,352.098541
	C864.999023,346.458221 885.291443,340.985260 905.657227,335.817383
	C922.322327,331.588562 939.139465,327.960907 955.867798,323.977020
	C961.172485,322.713684 966.659302,321.747406 971.624084,319.620850
	C982.198608,315.091370 992.821289,315.866089 1003.593811,318.031219
	C1009.750488,319.268646 1015.929138,320.467163 1021.993896,322.075439
	C1030.921387,324.442932 1037.216797,330.976074 1043.879150,336.803497
	C1044.526367,337.369659 1044.515015,339.643097 1043.914429,340.487274
	C1042.563232,342.386658 1040.941040,344.544647 1038.917114,345.439423
	C1027.510254,350.482391 1016.278320,356.305603 1004.376953,359.765137
	C979.897034,366.881165 955.031555,372.670807 930.324646,379.006012
	C912.906799,383.472229 895.473328,387.878510 878.075378,392.420837
	C861.010742,396.876190 843.953796,401.366394 826.948181,406.040375
	C816.303955,408.965942 805.840027,412.565216 795.156860,415.327271
	C769.196655,422.039337 743.029297,427.981598 717.189026,435.116180
	C698.096863,440.387573 679.368835,446.988770 660.520508,453.126251
	C654.594910,455.055817 648.805420,457.403168 642.588562,459.762268
z"/>
<path fill="#000000" opacity="0.000000" stroke="none"
	d="
M183.111771,544.000122
	C172.536102,545.999023 162.390457,547.915283 152.283661,550.018311
	C139.203140,552.740173 126.195450,555.829956 113.075600,558.338806
	C104.636307,559.952637 96.066116,560.926270 87.526657,561.954712
	C82.642441,562.542908 77.660477,562.371948 72.796257,563.062439
	C63.695713,564.353943 57.709534,559.433289 52.710972,553.070068
	C47.537033,546.483459 42.894699,539.472473 38.144943,532.561218
	C33.012894,525.093689 33.555092,520.033386 41.475334,516.453674
	C49.726547,512.724426 58.639061,510.176208 67.500717,508.157745
	C76.646553,506.074524 86.073273,505.208557 95.388367,503.889526
	C102.637672,502.862976 109.888428,501.810516 117.166580,501.031677
	C130.653122,499.588470 144.162247,498.357605 157.658081,496.999603
	C170.660690,495.691193 183.689713,494.580170 196.649460,492.929596
	C209.841507,491.249481 222.939163,488.836945 236.122772,487.079773
	C248.083725,485.485535 260.130585,484.537415 272.093170,482.953796
	C290.598083,480.504089 309.328674,480.073547 327.629700,475.496094
	C334.040283,473.892700 341.361023,475.477600 348.179443,476.313629
	C349.645081,476.493317 351.946014,479.829651 351.801025,481.536896
	C350.943970,491.629364 353.326294,500.799713 358.100403,509.574982
	C361.865509,516.495667 358.683502,517.150574 353.195587,517.985901
	C341.656555,519.742249 330.093079,521.340576 318.563019,523.152283
	C308.979431,524.658142 299.430908,526.386353 289.863831,527.997864
	C280.452484,529.583130 271.049652,531.224915 261.620361,532.696228
	C251.842194,534.221985 242.034836,535.560059 232.243622,537.003235
	C218.923019,538.966797 205.607483,540.964600 192.285400,542.918030
	C189.386078,543.343201 186.468338,543.643005 183.111771,544.000122
z"/>
<path fill="#000000" opacity="0.000000" stroke="none"
	d="
M768.914246,522.976868
	C779.935608,519.776672 790.639771,516.909119 801.112366,513.358398
	C823.556274,505.748871 845.866455,497.745850 868.259521,489.985199
	C880.260254,485.826172 892.704041,484.026733 905.324463,482.883179
	C911.695312,482.305878 917.994263,480.882050 924.300171,482.801392
	C933.910522,485.726410 940.933411,491.881927 945.478210,500.284851
	C938.972351,505.152802 932.818787,510.843933 925.698059,514.789368
	C918.086914,519.006470 909.724487,522.077820 901.401855,524.753174
	C887.529663,529.212402 873.481445,533.155640 859.410828,536.959351
	C835.397156,543.451172 811.317566,549.700256 787.248535,555.985779
	C772.644531,559.799622 757.923401,563.190063 743.404968,567.300964
	C715.506775,575.200256 687.703796,583.436768 659.884277,591.611755
	C644.064209,596.260620 628.379639,601.401855 612.454529,605.648193
	C605.136536,607.599487 597.356750,607.757812 589.843750,609.060364
	C584.785645,609.937378 579.815308,611.343750 574.829346,612.606873
	C570.314270,613.750610 568.769531,612.889282 569.064636,608.386780
	C569.889893,595.796692 570.843384,583.208252 572.194397,570.667419
	C572.377197,568.970459 574.940491,566.489807 576.720825,566.174500
	C588.053284,564.167542 599.539124,563.009521 610.850403,560.905273
	C623.045715,558.636597 635.139648,555.783386 647.216736,552.927185
	C672.098083,547.042725 696.959534,541.071167 721.788513,534.970093
	C737.394592,531.135376 752.926819,527.000244 768.914246,522.976868
z"/>
<path fill="#000000" opacity="0.000000" stroke="none"
	d="
M413.047058,499.999451
	C419.788910,502.981140 426.573059,505.271515 432.333771,509.101349
	C441.702728,515.330078 451.445740,519.546753 462.795868,520.061340
	C470.301086,520.401611 477.773987,521.713501 485.272461,521.821472
	C488.494263,521.867859 491.744141,519.964539 494.981232,518.946960
	C493.304993,516.104370 492.238342,512.491272 489.824219,510.581421
	C484.973083,506.743835 479.478790,503.675079 474.081573,500.582855
	C466.874084,496.453522 459.765015,491.978363 452.130005,488.821564
	C445.414551,486.044922 438.127136,484.253235 430.920502,483.173492
	C423.520020,482.064697 420.465302,479.799255 419.998749,472.394653
	C419.864380,470.261993 419.870026,468.104279 419.522705,466.005890
	C419.187469,463.980713 418.479614,462.017242 417.820862,459.607605
	C425.252075,455.886841 433.338989,455.796600 440.733521,457.565033
	C458.507416,461.815857 476.022766,467.168335 493.587341,472.266144
	C503.862000,475.248199 514.347290,475.307678 524.839966,474.826904
	C526.745605,474.739563 528.923462,472.725494 530.312256,471.050781
	C532.449829,468.473053 534.351379,465.572632 535.731812,462.527527
	C537.317810,459.028870 539.664246,459.577179 542.168274,460.671722
	C554.511169,466.067047 566.830322,471.517548 579.125671,477.020538
	C601.381531,486.981598 623.569519,497.095734 645.874023,506.946259
	C659.209106,512.835510 672.726196,518.311646 686.121277,524.066956
	C687.832458,524.802185 689.300476,526.103455 691.414795,527.493347
	C676.436462,530.935608 662.295227,534.368103 648.070007,537.407776
	C630.739136,541.111084 613.366882,544.637451 595.956726,547.946716
	C584.035706,550.212524 572.045898,552.159058 560.037109,553.905945
	C551.009338,555.219299 541.832031,557.181641 532.851501,556.651184
	C524.546265,556.160522 516.382874,552.853455 508.210999,550.591797
	C476.095276,541.703491 446.088043,527.761536 416.716858,512.298706
	C414.608826,511.188904 412.132812,510.718719 410.150482,509.447906
	C408.520935,508.403259 406.004944,506.200226 406.294800,505.235901
	C406.883484,503.277191 409.048157,501.750488 410.694183,500.183197
	C411.063171,499.831848 411.970398,500.045776 413.047058,499.999451
M566.999146,490.784454
	C566.642395,483.770966 563.032471,481.154602 554.414490,480.940674
	C547.750916,480.775238 542.948730,485.151794 541.111511,490.905518
	C539.738159,495.206390 543.352539,502.721405 547.946106,504.939819
	C554.955933,508.325104 559.122070,507.704895 563.755005,502.973175
	C567.131470,499.524780 567.057495,495.758087 566.999146,490.784454
M620.999451,508.774628
	C621.355347,503.581848 618.146423,500.689972 614.087036,498.611359
	C610.032776,496.535370 607.499634,499.926727 604.703003,501.844055
	C599.949097,505.103302 600.762268,510.190643 601.106689,514.840820
	C601.371399,518.414795 606.763184,522.682922 610.397705,523.012329
	C615.266174,523.453735 618.740784,521.311523 620.397156,516.930298
	C621.223206,514.745483 620.837463,512.102539 620.999451,508.774628
M585.583557,490.001038
	C579.322876,489.747223 576.111816,493.961029 572.803101,498.263763
	C577.040344,502.959717 583.302185,495.407684 587.124695,501.020966
	C584.855103,503.502563 584.855103,503.502563 574.342712,504.269135
	C576.264771,511.857513 580.273682,515.077942 585.715820,512.631348
	C588.876038,511.210754 592.467834,508.950104 593.945068,506.079285
	C595.504333,503.049164 595.670776,498.617188 594.804626,495.215546
	C593.926270,491.766083 590.829163,489.183655 585.583557,490.001038
M627.503174,517.998779
	C627.334717,521.948364 630.662354,526.649231 634.474121,527.846558
	C638.873840,529.228516 645.741394,527.948181 646.785889,524.285889
	C647.871582,520.478943 647.442505,515.659851 646.045715,511.886932
	C644.625977,508.052490 640.104187,507.074036 636.276672,508.139618
	C631.851318,509.371704 628.700073,512.455933 627.503174,517.998779
z"/>
<path fill="#000000" opacity="0.000000" stroke="none"
	d="
M174.175034,656.009521
	C168.270340,653.090576 164.719177,648.806946 162.787628,642.752319
	C161.959702,640.157104 159.367493,638.050110 157.364975,635.920654
	C153.824829,632.156128 153.965851,627.672913 158.422928,625.309937
	C165.686646,621.458984 173.326981,618.711975 181.696167,617.928894
	C200.700729,616.150696 219.722137,614.387390 238.637390,611.871460
	C254.170258,609.805359 269.507233,606.286560 285.029053,604.111084
	C298.454102,602.229492 312.055634,601.634521 325.508820,599.919006
	C340.952911,597.949585 356.342285,595.511536 371.709137,592.994263
	C378.214294,591.928650 383.089020,595.599426 384.015503,602.882324
	C384.938110,610.135071 385.997345,617.370422 386.995483,624.613525
	C387.728943,629.936035 386.068390,631.513000 380.680969,632.068848
	C370.159943,633.154297 359.686981,634.696594 349.181396,635.942688
	C339.947876,637.037903 330.684814,637.888489 321.457886,639.033325
	C314.701538,639.871704 307.973663,640.955444 301.249207,642.030640
	C291.181122,643.640442 281.111755,645.251099 271.071472,647.023193
	C260.417114,648.903625 249.822006,651.129272 239.150482,652.899597
	C233.043808,653.912598 226.849655,654.492981 220.671631,654.960449
	C210.015457,655.766785 199.330978,656.205994 188.679077,657.058044
	C183.881744,657.441711 179.058029,659.589844 174.175034,656.009521
z"/>
<path fill="#000000" opacity="0.000000" stroke="none"
	d="
M773.064819,623.092346
	C761.800110,621.124573 750.535339,619.156799 738.912415,617.126404
	C740.097778,610.760986 736.816956,610.220276 731.978699,611.378296
	C732.105774,612.728821 732.236328,614.117004 732.391052,615.761353
	C715.454468,613.977478 698.913086,609.720703 682.489075,601.743896
	C716.728943,589.722595 750.813110,580.716553 785.601013,574.322021
	C783.065186,575.580261 780.529358,576.838501 777.993530,578.096802
	C778.082397,578.562622 778.171265,579.028381 778.260132,579.494202
	C783.154419,578.841248 788.055298,578.233459 792.941223,577.523254
	C798.395935,576.730469 803.873047,576.019714 809.265381,574.908936
	C811.283508,574.493286 814.528687,573.271484 814.717590,572.035645
	C815.237244,568.635681 812.081909,568.231201 809.412842,568.011536
	C808.439331,567.931519 807.453613,567.998718 805.771484,567.998718
	C811.323181,565.615051 815.550171,566.407715 818.697815,570.224976
	C821.610413,573.757263 821.171936,577.431824 819.262573,581.412903
	C818.372803,583.268005 817.935059,585.900818 818.529907,587.791931
	C819.824158,591.906616 818.688538,594.063599 814.633972,595.005615
	C813.543396,595.258972 812.242798,595.388123 811.476685,596.067932
	C810.434448,596.992676 809.291504,598.356873 809.209045,599.600098
	C809.160461,600.331909 810.996521,601.728333 812.131104,601.909058
	C818.233643,602.881470 818.710205,603.856812 817.067749,609.933533
	C814.393738,619.826843 807.478394,622.663147 797.175293,623.809509
	C789.305115,624.685303 781.242310,623.829285 773.533936,623.369629
	C785.264587,621.112122 796.726501,619.228516 808.262817,617.332764
	C804.904480,603.131042 789.330444,606.113892 776.846680,612.343567
	C779.559082,613.434082 782.130066,614.467773 785.860107,615.967468
	C782.985535,616.845215 780.953918,617.206238 779.169067,618.074402
	C776.779724,619.236511 772.919495,618.800659 773.064819,623.092346
M795.002686,588.700256
	C794.660645,593.292175 797.429382,594.648071 801.196289,593.922058
	C807.705505,592.667603 810.485046,590.196655 808.605469,583.272095
	C802.953979,581.539795 797.865112,581.457092 795.002686,588.700256
M784.895386,601.635864
	C786.365723,600.035950 787.836060,598.435974 789.639160,596.473877
	C777.981445,595.166138 773.021606,597.833008 773.381409,605.614014
	C777.137817,604.353088 780.670349,603.167297 784.895386,601.635864
M742.997253,604.510742
	C740.587891,603.778687 737.344727,601.555847 736.223389,605.204773
	C735.046509,609.034607 738.380859,609.987366 741.648682,610.206909
	C745.946960,610.495605 750.235657,610.925659 755.471802,611.376038
	C752.002991,605.711975 747.720825,608.897095 744.229309,608.379822
	C744.014343,607.277222 743.799438,606.174622 742.997253,604.510742
M784.360962,590.095764
	C786.828491,587.970337 786.335754,585.789307 783.289673,586.206177
	C779.312561,586.750427 775.535400,588.755127 771.672180,590.131409
	C771.860535,590.867981 772.048828,591.604492 772.237122,592.341003
	C776.101257,591.803955 779.965393,591.266846 784.360962,590.095764
z"/>
<path fill="#000000" opacity="0.000000" stroke="none"
	d="
M718.214661,499.436768
	C717.673767,504.082367 717.615356,508.382019 716.800415,512.533203
	C716.580444,513.653748 713.953430,515.230530 712.622925,515.064270
	C693.994873,512.737122 677.359619,504.835632 660.839905,496.470581
	C653.595825,492.802368 645.808350,490.220673 638.360291,486.935577
	C635.033569,485.468201 631.935181,483.482971 627.454468,481.033752
	C638.183960,477.215942 647.538330,473.823792 656.936401,470.557312
	C674.187195,464.561462 691.434570,458.552826 708.743713,452.728943
	C715.881409,450.327362 723.134827,448.232513 730.429016,446.362427
	C732.024780,445.953308 734.018616,447.096924 735.829163,447.525513
	C735.401672,448.997803 735.200195,450.586273 734.512085,451.924530
	C726.839966,466.845581 721.427795,482.527924 718.214661,499.436768
z"/>
<path fill="#000000" opacity="0.000000" stroke="none"
	d="
M386.905182,576.998230
	C379.729126,577.998413 373.004761,579.013855 366.272858,579.976379
	C365.310364,580.113953 364.311279,579.995483 363.075409,579.995483
	C366.593231,560.786133 380.940765,545.358337 380.281891,525.347839
	C403.945404,537.836304 427.555573,550.296631 451.165771,562.756958
	C451.025848,563.235413 450.885925,563.713867 450.746002,564.192261
	C432.025238,568.123413 413.308044,572.071777 394.579224,575.964233
	C392.202118,576.458313 389.764191,576.659607 386.905182,576.998230
z"/>
<path fill="#000000" opacity="0.000000" stroke="none"
	d="
M337.805573,584.047363
	C331.666534,585.060669 325.957001,586.088318 320.227173,586.986633
	C311.578705,588.342468 302.935608,589.762085 294.253448,590.864807
	C286.958344,591.791321 279.612976,592.329224 272.285309,592.988708
	C269.066925,593.278320 265.837280,593.442200 261.328156,593.751160
	C266.836121,589.899353 271.643402,586.723572 276.249786,583.279053
	C287.251160,575.052612 298.172394,566.718689 309.098022,558.391357
	C317.726807,551.814636 326.152252,544.953796 335.012085,538.707275
	C337.889954,536.678284 341.776123,535.727600 345.343689,535.117249
	C349.857880,534.344910 350.834076,535.878418 348.541229,539.861633
	C343.616882,548.416443 342.102783,557.728149 342.054962,567.366394
	C342.038849,570.612427 342.647614,573.863220 342.996704,577.109009
	C343.392914,580.792908 341.680084,582.995300 337.805573,584.047363
z"/>
<path fill="#000000" opacity="0.000000" stroke="none"
	d="
M304.765625,545.694946
	C295.052704,552.632385 285.520599,559.210510 276.143250,566.002258
	C266.222290,573.187683 256.516724,580.671753 246.548553,587.789368
	C244.730209,589.087769 242.109314,589.641418 239.845169,589.677490
	C239.257141,589.686890 238.374741,586.488953 238.043198,584.687744
	C236.612350,576.914062 235.243484,569.126343 234.030884,561.315979
	C232.949829,554.352966 236.243866,551.355652 244.861526,549.942078
	C263.811676,546.833679 282.694122,543.312805 301.644257,540.204407
	C304.180847,539.788330 306.949554,540.787354 310.529205,541.249695
	C308.263885,542.966736 306.639221,544.198181 304.765625,545.694946
z"/>
<path fill="#000000" opacity="0.000000" stroke="none"
	d="
M742.665833,514.725159
	C739.704407,515.705200 737.116028,516.826172 734.448669,517.064819
	C732.754089,517.216431 730.942139,516.056946 729.182861,515.485413
	C729.959229,514.313660 730.616699,513.037903 731.533691,511.989105
	C734.576660,508.508972 737.262512,504.498413 740.910889,501.812897
	C747.739685,496.786346 755.208313,492.638611 762.299377,487.956543
	C772.755310,481.052795 783.104370,473.987335 793.525391,467.030396
	C794.851929,466.144836 796.289978,465.385040 797.759338,464.762878
	C801.100281,463.348236 803.782288,462.964569 804.085510,468.028076
	C804.514038,475.183502 805.594421,482.304138 805.903381,489.460907
	C806.082336,493.606781 803.260925,496.745270 799.591797,497.884644
	C784.793884,502.479858 769.868408,506.664307 754.990051,511.000366
	C750.995239,512.164612 747.000305,513.328491 742.665833,514.725159
M781.133911,498.986145
	C786.415588,498.949158 791.970154,499.931488 796.100403,495.169678
	C791.704285,490.885468 782.305542,493.154938 781.133911,498.986145
z"/>
<path fill="#000000" opacity="0.000000" stroke="none"
	d="
M415.984497,619.643311
	C416.968109,610.317261 417.838684,601.426819 418.943787,592.565735
	C419.632172,587.045959 423.895355,584.911377 428.589172,584.079407
	C441.639435,581.766052 454.737061,579.703125 467.853882,577.803162
	C469.456360,577.570984 471.290039,578.935120 473.661133,579.792542
	C470.287659,583.904114 467.793823,587.491394 464.757416,590.537842
	C456.820099,598.501404 448.683777,606.268433 440.547363,614.030579
	C437.226471,617.198669 433.863617,620.368042 430.209137,623.125000
	C427.862488,624.895325 425.070557,626.414734 422.248352,627.100342
	C420.245575,627.586914 417.357635,627.111145 415.831604,625.873169
	C414.916595,625.130920 415.861542,622.095886 415.984497,619.643311
z"/>
<path fill="#000000" opacity="0.000000" stroke="none"
	d="
M475.001007,599.995483
	C483.813049,590.100769 483.826019,590.081177 494.616333,597.228577
	C501.867462,602.031616 509.096375,606.868896 516.289246,611.758606
	C518.275452,613.108826 520.096924,614.701538 522.879028,616.874146
	C499.320648,622.940430 476.540802,624.959351 453.283844,624.805725
	C460.948242,616.164551 467.957611,608.261902 475.001007,599.995483
z"/>
<path fill="#000000" opacity="0.000000" stroke="none"
	d="
M769.498169,450.998962
	C767.283569,452.574280 765.478271,454.148590 762.743530,456.533508
	C768.118469,456.933167 771.549683,457.650940 775.398987,454.039093
	C777.579651,451.992889 782.677490,453.055695 786.461487,452.718231
	C786.683228,453.245880 786.905029,453.773560 787.126770,454.301208
	C770.016663,465.677826 752.906555,477.054474 735.796448,488.431091
	C736.873962,478.685730 738.501099,469.967285 743.824890,462.255859
	C746.488525,458.397583 747.139893,453.199921 749.541870,449.100586
	C754.307800,440.967133 761.756897,436.493591 771.091736,434.997467
	C779.377075,433.669525 787.621643,432.087677 795.888916,430.644928
	C796.414001,430.553314 796.979736,430.694885 797.609680,431.467896
	C789.348328,433.312531 781.074524,435.103821 772.832825,437.032623
	C770.194580,437.650055 767.576233,438.475677 765.081726,439.522858
	C764.094055,439.937500 763.468262,441.214264 762.677673,442.098450
	C762.911255,442.589935 763.144836,443.081421 763.378357,443.572906
	C770.253784,442.538605 777.144775,441.597076 783.999634,440.441071
	C789.624207,439.492554 794.945740,439.655518 800.768311,443.979553
	C793.127563,445.087555 786.523621,445.993988 779.942200,447.041687
	C778.584473,447.257843 776.597290,447.640900 776.130249,448.567200
	C774.664978,451.472900 772.281982,451.005188 769.498169,450.998962
z"/>
<path fill="#000000" opacity="0.000000" stroke="none"
	d="
M516.343262,594.728882
	C508.403961,589.434143 500.766357,584.360046 493.069824,579.246826
	C494.339111,575.867859 495.958801,574.564148 499.328186,573.747864
	C508.605804,571.500244 517.830566,571.277649 527.003601,573.175781
	C531.309692,574.066895 535.291748,576.272644 537.099060,581.229126
	C540.828186,591.455933 545.000427,601.520569 548.908508,611.683411
	C549.237854,612.539856 548.952087,613.632812 548.952087,615.886169
	C537.704834,608.597412 527.174866,601.773438 516.343262,594.728882
z"/>
<path fill="#000000" opacity="0.000000" stroke="none"
	d="
M819.003906,480.952026
	C818.348267,473.341370 817.257996,466.194489 817.252319,459.046783
	C817.250000,456.212646 818.967712,452.603912 821.106384,450.701294
	C825.644592,446.664032 830.972778,443.514893 836.217773,439.832642
	C838.672974,441.946289 838.998718,444.090454 838.136841,447.410767
	C835.432556,457.829346 833.396729,468.419769 830.946594,478.907379
	C830.445129,481.053650 829.796265,483.677307 828.271057,484.944000
	C826.331360,486.554993 823.429688,487.007812 820.942749,487.959930
	C820.296509,485.778442 819.650208,483.596954 819.003906,480.952026
z"/>
<path fill="#000000" opacity="0.000000" stroke="none"
	d="
M647.874390,616.022705
	C655.427917,617.361633 662.556458,618.670593 669.680847,620.001770
	C680.589111,622.040100 691.495667,624.087341 702.397949,626.156982
	C703.035217,626.277954 703.627991,626.633240 704.241455,626.879456
	C703.997009,627.252014 703.752625,627.624634 703.508240,627.997192
	C693.968140,627.997192 684.419434,628.211182 674.894714,627.828613
	C672.823975,627.745422 670.540161,625.833557 668.877380,624.223816
	C665.483887,620.938660 661.754578,619.242432 657.239868,621.060974
	C652.232788,623.077820 647.812988,621.346497 643.258850,619.676147
	C639.834717,618.420288 636.344788,617.344055 633.078979,616.252991
	C637.303955,611.597412 642.448059,615.078796 647.874390,616.022705
z"/>
<path fill="#000000" opacity="0.000000" stroke="none"
	d="
M406.741089,593.372681
	C407.100037,595.882507 407.672974,598.126099 407.273773,600.180725
	C406.454895,604.395264 405.226166,608.543762 403.927582,612.643921
	C403.488983,614.028809 402.329865,615.185486 401.500000,616.446472
	C401.029572,616.315918 400.559113,616.185303 400.088684,616.054688
	C399.059021,609.122681 397.843964,602.209534 397.135620,595.244812
	C396.967590,593.592651 398.198395,590.540039 399.308075,590.268860
	C401.895996,589.636414 405.381439,588.897949 406.741089,593.372681
z"/>
<path fill="#000000" opacity="0.000000" stroke="none"
	d="
M832.721497,420.998962
	C834.501038,420.630554 835.864929,420.262299 837.228882,419.894012
	C837.485229,420.251007 837.741638,420.608002 837.998047,420.964996
	C833.423523,424.398468 828.858521,427.844849 824.265076,431.252747
	C823.500366,431.820068 822.636719,432.272583 821.774597,432.685913
	C820.299316,433.393158 817.894104,434.950348 817.455994,434.525360
	C815.937866,433.052704 814.349731,430.911591 814.268066,428.962799
	C814.214905,427.693909 816.504700,425.696594 818.135742,425.107330
	C822.751404,423.439758 827.568298,422.329102 832.721497,420.998962
z"/>
<path fill="#000000" opacity="0.000000" stroke="none"
	d="
M556.801331,583.521973
	C553.177429,585.014526 550.672363,582.180725 549.589600,574.802002
	C549.381653,573.384705 551.275452,570.714294 552.755127,570.190186
	C555.859009,569.090759 557.794556,572.793335 556.967712,577.285278
	C556.618896,579.180420 556.944397,581.199585 556.801331,583.521973
z"/>
<path fill="#000000" opacity="0.000000" stroke="none"
	d="
M485.064514,440.999634
	C487.572876,441.566254 489.672607,442.132843 491.772339,442.699432
	C491.675690,443.356842 491.579010,444.014221 491.482330,444.671631
	C487.780701,444.370361 484.079071,444.069092 480.377441,443.767853
	C480.373627,443.238831 480.369812,442.709839 480.365997,442.180847
	C481.795959,441.787109 483.225952,441.393372 485.064514,440.999634
z"/>
<path fill="#000000" opacity="0.000000" stroke="none"
	d="
M501.052307,446.953522
	C504.037506,444.270233 506.613312,444.960785 509.401733,448.047211
	C506.155518,451.552673 503.593048,449.667664 501.052307,446.953522
z"/>
<path fill="#000000" opacity="0.000000" stroke="none"
	d="
M380.894592,689.999512
	C377.172882,689.487122 375.017639,688.259766 377.032379,683.622559
	C379.136444,685.307434 380.834625,686.598022 382.390533,688.041870
	C382.518280,688.160461 381.678223,689.321838 380.894592,689.999512
z"/>
<path fill="#F7F3E8" opacity="1.000000" stroke="none"
	d="
M566.999207,491.230286
	C567.057495,495.758087 567.131470,499.524780 563.755005,502.973175
	C559.122070,507.704895 554.955933,508.325104 547.946106,504.939819
	C543.352539,502.721405 539.738159,495.206390 541.111511,490.905518
	C542.948730,485.151794 547.750916,480.775238 554.414490,480.940674
	C563.032471,481.154602 566.642395,483.770966 566.999207,491.230286
M558.912415,496.606720
	C560.036133,493.057312 557.745361,490.216888 553.147827,490.110474
	C551.461609,490.071442 549.746521,491.280060 548.044617,491.919586
	C548.948425,493.380554 549.547729,495.639954 550.823181,496.126251
	C553.065125,496.981049 555.720581,496.751190 558.912415,496.606720
z"/>
<path fill="#F7F3E8" opacity="1.000000" stroke="none"
	d="
M620.999634,509.220703
	C620.837463,512.102539 621.223206,514.745483 620.397156,516.930298
	C618.740784,521.311523 615.266174,523.453735 610.397705,523.012329
	C606.763184,522.682922 601.371399,518.414795 601.106689,514.840820
	C600.762268,510.190643 599.949097,505.103302 604.703003,501.844055
	C607.499634,499.926727 610.032776,496.535370 614.087036,498.611359
	C618.146423,500.689972 621.355347,503.581848 620.999634,509.220703
M608.834045,513.262634
	C611.030273,512.455261 613.226562,511.647888 615.422791,510.840515
	C615.208130,510.052155 614.993469,509.263824 614.778870,508.475464
	C612.308533,508.735382 609.600830,508.457672 607.437500,509.412872
	C605.443176,510.293427 604.208435,512.463928 608.834045,513.262634
z"/>
<path fill="#F7F3E8" opacity="0.000000" stroke="none"
	d="
M586.013184,490.001038
	C590.829163,489.183655 593.926270,491.766083 594.804626,495.215546
	C595.670776,498.617188 595.504333,503.049164 593.945068,506.079285
	C592.467834,508.950104 588.876038,511.210754 585.715820,512.631348
	C580.273682,515.077942 576.264771,511.857513 574.342712,504.269135
	C584.855103,503.502563 584.855103,503.502563 587.124695,501.020966
	C583.302185,495.407684 577.040344,502.959717 572.803101,498.263763
	C576.111816,493.961029 579.322876,489.747223 586.013184,490.001038
z"/>
<path fill="#F7F3E8" opacity="1.000000" stroke="none"
	d="
M627.730957,517.680054
	C628.700073,512.455933 631.851318,509.371704 636.276672,508.139618
	C640.104187,507.074036 644.625977,508.052490 646.045715,511.886932
	C647.442505,515.659851 647.871582,520.478943 646.785889,524.285889
	C645.741394,527.948181 638.873840,529.228516 634.474121,527.846558
	C630.662354,526.649231 627.334717,521.948364 627.730957,517.680054
M641.569275,517.064209
	C636.254761,514.574341 635.155823,515.035034 635.406128,520.864075
	C637.840271,519.709412 639.899292,518.732666 641.569275,517.064209
z"/>
<path fill="#F8F4E9" opacity="1.000000" stroke="none"
	d="
M773.031494,623.057007
	C772.919495,618.800659 776.779724,619.236511 779.169067,618.074402
	C780.953918,617.206238 782.985535,616.845215 785.860107,615.967468
	C782.130066,614.467773 779.559082,613.434082 776.846680,612.343567
	C789.330444,606.113892 804.904480,603.131042 808.262817,617.332764
	C796.726501,619.228516 785.264587,621.112122 773.365173,622.975220
	C772.927734,622.954834 772.998230,623.021606 773.031494,623.057007
z"/>
<path fill="#F8F4E9" opacity="1.000000" stroke="none"
	d="
M795.006104,588.295044
	C797.865112,581.457092 802.953979,581.539795 808.605469,583.272095
	C810.485046,590.196655 807.705505,592.667603 801.196289,593.922058
	C797.429382,594.648071 794.660645,593.292175 795.006104,588.295044
z"/>
<path fill="#F8F4E9" opacity="1.000000" stroke="none"
	d="
M784.549072,601.808716
	C780.670349,603.167297 777.137817,604.353088 773.381409,605.614014
	C773.021606,597.833008 777.981445,595.166138 789.639160,596.473877
	C787.836060,598.435974 786.365723,600.035950 784.549072,601.808716
z"/>
<path fill="#F8F4E8" opacity="0.000000" stroke="none"
	d="
M743.290894,604.791382
	C743.799438,606.174622 744.014343,607.277222 744.229614,608.374634
	C747.720825,608.897095 752.002991,605.711975 755.471802,611.376038
	C750.235657,610.925659 745.946960,610.495605 741.648682,610.206909
	C738.380859,609.987366 735.046509,609.034607 736.223389,605.204773
	C737.344727,601.555847 740.587891,603.778687 743.290894,604.791382
z"/>
<path fill="#F8F4E9" opacity="1.000000" stroke="none"
	d="
M784.095215,590.412781
	C779.965393,591.266846 776.101257,591.803955 772.237122,592.341003
	C772.048828,591.604492 771.860535,590.867981 771.672180,590.131409
	C775.535400,588.755127 779.312561,586.750427 783.289673,586.206177
	C786.335754,585.789307 786.828491,587.970337 784.095215,590.412781
z"/>
<path fill="#F8F4E9" opacity="1.000000" stroke="none"
	d="
M780.719482,498.891235
	C782.305542,493.154938 791.704285,490.885468 796.100403,495.169678
	C791.970154,499.931488 786.415588,498.949158 780.719482,498.891235
z"/>
<path fill="#000000" opacity="0.000000" stroke="none"
	d="
M558.557617,496.791138
	C555.720581,496.751190 553.065125,496.981049 550.823181,496.126251
	C549.547729,495.639954 548.948425,493.380554 548.044617,491.919586
	C549.746521,491.280060 551.461609,490.071442 553.147827,490.110474
	C557.745361,490.216888 560.036133,493.057312 558.557617,496.791138
z"/>
<path fill="#000000" opacity="0.000000" stroke="none"
	d="
M608.465332,513.134399
	C604.208435,512.463928 605.443176,510.293427 607.437500,509.412872
	C609.600830,508.457672 612.308533,508.735382 614.778870,508.475464
	C614.993469,509.263824 615.208130,510.052155 615.422791,510.840515
	C613.226562,511.647888 611.030273,512.455261 608.465332,513.134399
z"/>
<path fill="#000000" opacity="0.000000" stroke="none" 
	d="
M641.763794,517.410034
	C639.899292,518.732666 637.840271,519.709412 635.406128,520.864075
	C635.155823,515.035034 636.254761,514.574341 641.763794,517.410034
z"/>
</svg>
